<?xml version="1.0" encoding="UTF-8" standalone="no"?>
<!-- Created with Inkscape (http://www.inkscape.org/) -->

<svg
   xmlns:dc="http://purl.org/dc/elements/1.1/"
   xmlns:cc="http://creativecommons.org/ns#"
   xmlns:rdf="http://www.w3.org/1999/02/22-rdf-syntax-ns#"
   xmlns:svg="http://www.w3.org/2000/svg"
   xmlns="http://www.w3.org/2000/svg"
   xmlns:sodipodi="http://sodipodi.sourceforge.net/DTD/sodipodi-0.dtd"
   xmlns:inkscape="http://www.inkscape.org/namespaces/inkscape"
   width="31.072313mm"
   height="34.608715mm"
   viewBox="0 0 31.072313 34.608715"
   version="1.1"
   id="svg1230"
   inkscape:version="0.92.4 5da689c313, 2019-01-14"
   sodipodi:docname="leaf2.svg">
  <defs
     id="defs1224" />
  <sodipodi:namedview
     id="base"
     pagecolor="#ffffff"
     bordercolor="#666666"
     borderopacity="1.0"
     inkscape:pageopacity="0.0"
     inkscape:pageshadow="2"
     inkscape:zoom="0.35"
     inkscape:cx="270.1479"
     inkscape:cy="-94.597698"
     inkscape:document-units="mm"
     inkscape:current-layer="layer1"
     showgrid="false"
     inkscape:window-width="1866"
     inkscape:window-height="1018"
     inkscape:window-x="54"
     inkscape:window-y="25"
     inkscape:window-maximized="1" />
  <metadata
     id="metadata1227">
    <rdf:RDF>
      <cc:Work
         rdf:about="">
        <dc:format>image/svg+xml</dc:format>
        <dc:type
           rdf:resource="http://purl.org/dc/dcmitype/StillImage" />
        <dc:title></dc:title>
      </cc:Work>
    </rdf:RDF>
  </metadata>
  <g
     inkscape:label="Layer 1"
     inkscape:groupmode="layer"
     id="layer1"
     transform="translate(-34.356701,-89.195645)">
    <g
       id="g443"
       transform="matrix(0.35277777,0,0,-0.35277777,55.855331,123.79503)">
      <path
         d="m 0,0 c 0,0 -2.857,-0.238 -3.571,0.714 -0.714,0.952 -4.523,9.284 -5.951,15.95 -1.428,6.665 -3.333,16.663 -3.333,16.663 0,0 -3.332,-2.856 -5.237,-7.379 -1.904,-4.523 -4.047,-7.38 -4.047,-7.38 0,0 -0.238,4.761 -4.285,3.571 -4.046,-1.191 -8.331,-4.047 -8.331,-4.047 0,0 -2.857,3.809 -8.808,3.095 -5.952,-0.715 -8.57,-1.429 -8.57,-1.429 0,0 10.474,6.428 9.522,12.617 -0.952,6.189 -12.141,5.951 -12.141,5.951 0,0 6.666,2.857 4.523,8.332 -2.142,5.475 -10.712,14.997 -10.712,14.997 0,0 18.092,-6.665 24.519,-3.095 6.428,3.571 -2.618,19.521 -2.618,19.521 0,0 4.999,-2.143 9.522,2.618 4.523,4.761 2.142,17.378 2.142,17.378 0,0 5.713,-12.141 9.522,-13.331 3.809,-1.19 6.19,0.714 6.19,0.714 0,0 -1.905,-10.95 6.427,-15.473 8.332,-4.523 18.33,4.047 18.33,4.047 0,0 0.238,-3.571 3.094,-2.619 2.857,0.952 7.856,4.761 7.856,4.761 0,0 -5.237,-7.617 -4.999,-13.093 0.238,-5.475 6.189,-7.379 6.189,-7.379 0,0 -9.3,-2.191 -9.879,-7.975 -0.595,-5.951 0.952,-10.712 4.523,-12.617 3.571,-1.904 7.261,-2.856 7.261,-2.856 0,0 -8.927,0.476 -12.736,-3.095 C 10.593,25.59 8.57,21.663 8.57,21.663 c 0,0 -2.857,6.427 -7.142,4.285 -4.285,-2.143 -5.951,-5.714 -5.951,-5.714 0,0 -4.047,5.714 -5.237,8.808 -1.19,3.095 -1.428,4.761 -1.428,4.761 0,0 1.904,-14.283 4.999,-21.424 C -3.095,5.237 0,0 0,0"
         style="fill:#649e44;fill-opacity:1;fill-rule:nonzero;stroke:none"
         id="path445"
         inkscape:connector-curvature="0" />
    </g>
    <g
       id="g447"
       transform="matrix(0.35277777,0,0,-0.35277777,47.457422,95.158187)">
      <path
         d="m 0,0 c 1.887,-11.817 3.982,-22.104 7.38,-33.684 0.718,-2.449 2.698,-6.75 2.737,-9.284 -6.649,2.057 -11.902,7.498 -18.893,9.861 3.42,-3.315 9.165,-6.501 12.347,-8.433 3.332,-2.023 5.56,-2.934 8.082,-5.111 1.045,1.926 2.853,3.592 4.112,5.462 1.545,2.295 3.025,4.554 4.469,6.912 2.44,3.985 5.757,7.811 8.746,11.427 -6.307,-6.554 -11.927,-13.421 -16.892,-20.92 -1.697,3.131 -2.615,7.815 -3.428,11.305 -0.902,3.867 -1.638,7.772 -2.947,11.529 C 3.355,-14.169 2.633,-6.867 0,0"
         style="fill:#f5f0a1;fill-opacity:1;fill-rule:nonzero;stroke:none"
         id="path449"
         inkscape:connector-curvature="0" />
    </g>
  </g>
</svg>
