<?xml version="1.0" encoding="UTF-8" standalone="no"?>
<!-- Created with Inkscape (http://www.inkscape.org/) -->

<svg
   xmlns:dc="http://purl.org/dc/elements/1.1/"
   xmlns:cc="http://creativecommons.org/ns#"
   xmlns:rdf="http://www.w3.org/1999/02/22-rdf-syntax-ns#"
   xmlns:svg="http://www.w3.org/2000/svg"
   xmlns="http://www.w3.org/2000/svg"
   xmlns:sodipodi="http://sodipodi.sourceforge.net/DTD/sodipodi-0.dtd"
   xmlns:inkscape="http://www.inkscape.org/namespaces/inkscape"
   width="33.169189mm"
   height="49.389385mm"
   viewBox="0 0 33.169189 49.389385"
   version="1.1"
   id="svg1398"
   inkscape:version="0.92.4 5da689c313, 2019-01-14"
   sodipodi:docname="leaf4.svg">
  <defs
     id="defs1392">
    <clipPath
       clipPathUnits="userSpaceOnUse"
       id="clipPath1041">
      <path
         d="m 222.17,336.111 h 65.368 V 255.453 H 222.17 Z"
         id="path1039"
         inkscape:connector-curvature="0" />
    </clipPath>
  </defs>
  <sodipodi:namedview
     id="base"
     pagecolor="#ffffff"
     bordercolor="#666666"
     borderopacity="1.0"
     inkscape:pageopacity="0.0"
     inkscape:pageshadow="2"
     inkscape:zoom="0.35"
     inkscape:cx="36.967663"
     inkscape:cy="10.477126"
     inkscape:document-units="mm"
     inkscape:current-layer="layer1"
     showgrid="false"
     inkscape:window-width="1866"
     inkscape:window-height="1018"
     inkscape:window-x="54"
     inkscape:window-y="25"
     inkscape:window-maximized="1" />
  <metadata
     id="metadata1395">
    <rdf:RDF>
      <cc:Work
         rdf:about="">
        <dc:format>image/svg+xml</dc:format>
        <dc:type
           rdf:resource="http://purl.org/dc/dcmitype/StillImage" />
        <dc:title></dc:title>
      </cc:Work>
    </rdf:RDF>
  </metadata>
  <g
     inkscape:label="Layer 1"
     inkscape:groupmode="layer"
     id="layer1"
     transform="translate(-96.052306,-102.21602)">
    <g
       id="g1031"
       transform="matrix(0.35277777,0,0,-0.35277777,105.11057,102.22565)">
      <path
         d="m 0,0 c -0.43,-3.711 0.959,-8.94 -0.095,-12.325 -1.424,0.422 -2.488,1.699 -3.831,2.308 -1.292,-2.486 2.211,-6.54 2.352,-9.254 -2.87,0.417 -4.694,2.295 -3.413,-1.849 0.751,-2.433 2.784,-4.914 2.095,-7.673 -1.417,0.135 -2.428,1.146 -3.772,1.456 -1.627,-3.007 2.127,-5.987 1.561,-9.059 -1.573,0.158 -4.635,2.872 -5.973,1.93 -1.631,-1.148 0.041,-4.687 0.41,-6.099 0.744,-2.842 4.586,-13.695 -1.53,-10.699 -1.534,0.751 -4.732,4.529 -5.607,1.455 -0.458,-1.607 2.474,-5.645 2.875,-7.481 0.403,-1.841 1.215,-4.241 -0.849,-5.162 -2.096,-0.936 -4.329,2.15 -6.408,1.029 -5.399,-2.909 3.923,-13.407 2.962,-16.991 -0.674,0.309 -1.639,0.361 -2.265,0.816 -1.308,-2.641 2.083,-5.006 0.979,-7.852 -1.607,0.325 -2.603,1.715 -4.105,2.156 -3.918,-4.67 4.143,-10.496 5.677,-14.129 -5.865,-2.124 3.132,-7.289 4.362,-9.227 1.682,-2.65 2.037,-4.568 4.646,-6.85 3.681,-3.221 6.46,-3.295 11.235,-2.32 6.6,1.347 12.699,4.129 18.94,6.421 1.299,0.478 4.124,1.679 5.464,1.511 2.698,-0.338 2.881,-2.931 3.854,-5.266 1.982,-4.754 4.661,-9.087 6.731,-13.74 1.508,-3.392 2.709,-7.313 4.396,-10.564 0.725,-1.396 2.591,-3.921 3.818,-1.525 0.825,1.61 -3.537,7.816 -4.305,9.415 -1.65,3.435 -3.272,6.672 -4.273,10.371 -0.902,3.336 -3.772,7.76 -3.861,11.157 -0.106,4.042 11.659,8.447 15.401,9.894 3.765,1.455 7.828,2.28 11.796,3.039 3.011,0.577 6.409,2.974 7.087,6.404 0.388,1.962 -1.268,2.637 -1.415,4.406 -0.158,1.891 1.361,3.787 1.968,5.511 1.487,4.221 1.775,8.581 1.078,12.952 -1.595,-0.747 -4.699,-3.402 -6.588,-2.49 -2.084,1.007 -0.266,4.194 -1.16,6.39 -0.897,-0.008 -1.858,-0.319 -2.759,-0.727 -1.629,1.783 1.357,6.64 1.202,9.071 -0.979,-0.119 -1.985,-0.442 -2.933,-0.699 -0.404,2.138 1.53,5.017 0.347,6.947 -1.72,2.807 -4.387,-0.525 -6.171,-1.848 -5.891,-4.365 -1.214,6.016 -6.798,2.887 -0.708,2.681 0.978,5.531 -0.795,7.996 -0.719,-0.588 -1.478,-1.218 -2.19,-1.816 -1.75,7.577 -3.671,0.379 -8.373,0.109 -2.119,3.845 -0.812,7.912 -2.15,11.646 -1.662,4.637 -3.463,0.374 -5.543,-0.894 -5.779,-3.523 -3.203,10.497 -10.351,5.815 -2.466,2.869 0.225,13.598 -6.023,9.674 -2.04,1.526 -0.142,4.334 -1.148,6.35 C 5.897,-6.111 4.919,-6.506 4.394,-5.868 2.353,-3.39 3.794,0.385 0,0"
         style="fill:#aac925;fill-opacity:1;fill-rule:nonzero;stroke:none"
         id="path1033"
         inkscape:connector-curvature="0" />
    </g>
    <g
       transform="matrix(0.35277777,0,0,-0.35277777,23.47755,229.89645)"
       id="g1035">
      <g
         id="g1037" />
      <g
         id="g1049">
        <g
           clip-path="url(#clipPath1041)"
           id="g1047"
           style="opacity:0.5">
          <g
             transform="translate(259.6615,255.4682)"
             id="g1045">
            <path
               d="m 0,0 c -2.941,-0.168 -5.681,1.129 -8.678,1.258 -3.141,0.135 -6.047,-0.554 -9.163,-0.412 -3.122,0.141 -6.337,0.209 -9.342,0.91 -2.977,0.694 -5.419,2.252 -8.437,2.608 5.291,-1.126 9.877,-2.511 15.466,-2.205 4.862,0.266 10.014,0.512 15.061,0.44 -11.705,3.721 -21.513,13.039 -32.398,18.768 8.433,-2.825 14.592,-7.592 21.058,-10.825 5.75,-2.875 7.87,-4.662 12,-6.625 0.482,6.211 -7.659,17.189 -11.045,22.225 -4.21,6.26 -10.455,13.15 -14.85,18.282 9.77,-6.882 15.185,-15.431 20.77,-24.132 3.165,-4.932 5.799,-8.439 7.608,-14.046 0.267,5.921 -6.155,19.273 -9.345,27.076 -2.67,6.529 -4.084,13.548 -6.576,20.19 -3.361,8.957 -6.038,17.953 -7.855,27.13 -0.127,-5.068 4.268,-11.339 6.01,-15.975 1.359,-3.618 1.915,-7.448 3.087,-11.14 2.337,-7.366 5.377,-15.125 8.071,-22.235 1.925,-5.081 3.926,-10.154 6,-15.25 1.197,-2.941 1.651,-6.381 3.072,-9.118 2.192,9.483 -0.302,21.288 -1.757,30.76 -1.13,7.354 -2.303,15.57 -1.881,23.006 1.56,-5.754 1.208,-11.942 2.411,-17.854 C 0.35,37.611 1.249,32.471 1.766,27.168 2.434,20.303 3.417,13.633 3.235,6.693 c 2.873,7.167 3.88,15.199 6.824,22.299 2.413,5.819 4.903,12.609 6.135,18.736 C 16.79,43.582 14.286,36.783 13.353,32.586 12.603,29.21 11.171,26 10.156,22.697 8.494,17.292 6.334,11.792 4.913,6.377 10.939,13.503 20.39,17.761 27.877,22.892 25.855,19.312 21.375,17.083 18.339,14.282 15.567,11.725 12.839,10.657 9.567,7.792 7.687,6.145 5.3,5.181 3.627,2.931 2.585,1.531 2.26,-0.099 0,0"
               style="fill:#f5f0a1;fill-opacity:1;fill-rule:nonzero;stroke:none"
               id="path1043"
               inkscape:connector-curvature="0" />
          </g>
        </g>
      </g>
    </g>
  </g>
</svg>
