<?xml version="1.0" encoding="UTF-8" standalone="no"?>
<!-- Created with Inkscape (http://www.inkscape.org/) -->

<svg
   xmlns:dc="http://purl.org/dc/elements/1.1/"
   xmlns:cc="http://creativecommons.org/ns#"
   xmlns:rdf="http://www.w3.org/1999/02/22-rdf-syntax-ns#"
   xmlns:svg="http://www.w3.org/2000/svg"
   xmlns="http://www.w3.org/2000/svg"
   xmlns:sodipodi="http://sodipodi.sourceforge.net/DTD/sodipodi-0.dtd"
   xmlns:inkscape="http://www.inkscape.org/namespaces/inkscape"
   width="34.786705mm"
   height="48.484013mm"
   viewBox="0 0 34.786705 48.484013"
   version="1.1"
   id="svg1518"
   inkscape:version="0.92.4 5da689c313, 2019-01-14"
   sodipodi:docname="leaf6.svg">
  <defs
     id="defs1512" />
  <sodipodi:namedview
     id="base"
     pagecolor="#ffffff"
     bordercolor="#666666"
     borderopacity="1.0"
     inkscape:pageopacity="0.0"
     inkscape:pageshadow="2"
     inkscape:zoom="0.35"
     inkscape:cx="128.59578"
     inkscape:cy="-8.3766551"
     inkscape:document-units="mm"
     inkscape:current-layer="layer1"
     showgrid="false"
     inkscape:window-width="1866"
     inkscape:window-height="1018"
     inkscape:window-x="54"
     inkscape:window-y="25"
     inkscape:window-maximized="1" />
  <metadata
     id="metadata1515">
    <rdf:RDF>
      <cc:Work
         rdf:about="">
        <dc:format>image/svg+xml</dc:format>
        <dc:type
           rdf:resource="http://purl.org/dc/dcmitype/StillImage" />
        <dc:title></dc:title>
      </cc:Work>
    </rdf:RDF>
  </metadata>
  <g
     inkscape:label="Layer 1"
     inkscape:groupmode="layer"
     id="layer1"
     transform="translate(-71.809032,-98.132997)">
    <g
       id="g471"
       transform="matrix(0.35277777,0,0,-0.35277777,105.58785,146.61701)">
      <path
         d="m 0,0 2.857,2.222 -24.123,27.296 c 0,0 0.952,16.188 1.905,20.949 0.952,4.761 -1.905,13.331 -4.761,19.996 -2.857,6.665 -5.714,14.918 -6.666,20.948 -0.952,6.031 -0.952,13.331 -6.031,19.362 -5.078,6.031 -17.774,19.361 -26.661,20.948 -8.887,1.587 -18.409,-1.904 -21.901,0.318 -3.491,2.222 -7.3,5.396 -7.3,5.396 0,0 2.222,-8.57 -1.27,-23.171 -3.491,-14.6 -1.904,-35.866 4.761,-44.753 6.666,-8.887 18.727,-23.805 26.345,-27.931 7.617,-4.127 21.9,-12.379 27.613,-13.331 5.714,-0.952 11.427,-2.54 11.427,-2.54 0,0 12.379,-14.283 14.6,-17.457 C -6.983,5.078 0,0 0,0"
         style="fill:#86be47;fill-opacity:1;fill-rule:nonzero;stroke:none"
         id="path473"
         inkscape:connector-curvature="0" />
    </g>
    <g
       id="g475"
       transform="matrix(0.35277777,0,0,-0.35277777,96.976118,135.77276)">
      <path
         d="m 0,0 c -3.644,2.907 -7.058,7.573 -9.999,11.195 -2.184,2.689 -3.839,4.073 -5.574,7.021 -1.613,2.741 -3.513,6.592 -5.427,9.119 -4.572,6.034 -9.69,12.502 -13.585,19.151 -5.091,8.689 -8.983,18.165 -13.675,27.106 -3.936,7.499 -10.717,13.481 -13.68,21.196 1.771,-1.213 3.891,-4.483 5.633,-6.455 1.716,-1.943 3.47,-3.763 5.112,-5.83 5.491,-6.91 9.448,-15.664 13.371,-23.532 C -30.19,43.659 -20.665,27.726 -10.017,14.593 -7.598,11.609 2.829,0.084 0,0"
         style="fill:#649e44;fill-opacity:1;fill-rule:nonzero;stroke:none"
         id="path477"
         inkscape:connector-curvature="0" />
    </g>
    <g
       id="g479"
       transform="matrix(0.35277777,0,0,-0.35277777,82.14287,112.34397)">
      <path
         d="m 0,0 c -0.765,3.614 -1.784,6.783 -1.795,10.545 -0.009,2.882 -0.134,4.716 -1.117,7.393 -1.43,3.895 -1.1,9.237 -3.919,12.438 -0.109,0.124 -0.352,-0.007 -0.288,-0.167 1.083,-2.681 1.299,-5.129 1.902,-7.954 0.454,-2.124 1.417,-3.929 2.042,-5.986 0.866,-2.846 0.273,-5.516 0.553,-8.394 0.267,-2.736 1.204,-5.439 2.049,-8.033 C -0.454,-0.522 0.079,-0.374 0,0"
         style="fill:#649e44;fill-opacity:1;fill-rule:nonzero;stroke:none"
         id="path481"
         inkscape:connector-curvature="0" />
    </g>
    <g
       id="g483"
       transform="matrix(0.35277777,0,0,-0.35277777,85.496165,118.60423)">
      <path
         d="m 0,0 c -0.757,6.823 0.888,13.576 0.177,20.471 -0.763,7.398 -0.787,17.04 -4.453,23.635 -0.121,0.218 -0.432,0.065 -0.386,-0.162 1.981,-9.72 4.328,-19.637 4.241,-29.645 C -0.446,11.417 -3.196,1.51 -0.188,-0.108 -0.113,-0.148 0.011,-0.1 0,0"
         style="fill:#649e44;fill-opacity:1;fill-rule:nonzero;stroke:none"
         id="path485"
         inkscape:connector-curvature="0" />
    </g>
    <g
       id="g487"
       transform="matrix(0.35277777,0,0,-0.35277777,88.629043,123.92888)">
      <path
         d="m 0,0 c 0.789,4.308 0.295,8.621 0.449,12.972 0.151,4.289 0.787,8.54 0.717,12.839 -0.075,4.569 -0.742,9.118 -0.645,13.692 0.075,3.53 0.781,6.977 -0.619,10.324 -0.125,0.298 -0.528,0.188 -0.482,-0.133 0.559,-3.909 0.048,-7.692 0.06,-11.601 C -0.507,33.702 0.191,29.337 0.213,24.945 0.232,20.941 -0.342,16.969 -0.46,12.972 -0.587,8.656 -0.218,4.403 -0.691,0.093 -0.733,-0.298 -0.071,-0.389 0,0"
         style="fill:#649e44;fill-opacity:1;fill-rule:nonzero;stroke:none"
         id="path489"
         inkscape:connector-curvature="0" />
    </g>
    <g
       id="g491"
       transform="matrix(0.35277777,0,0,-0.35277777,92.505752,129.89312)">
      <path
         d="m 0,0 c 0.376,7.894 2.031,15.707 2.167,23.602 0.13,7.516 -1.152,14.81 -2.437,22.173 -0.079,0.454 -0.81,0.344 -0.798,-0.108 C -0.858,37.985 1.338,30.49 1.136,22.705 0.938,15.102 -0.772,7.615 -0.656,0 -0.65,-0.424 -0.02,-0.421 0,0"
         style="fill:#649e44;fill-opacity:1;fill-rule:nonzero;stroke:none"
         id="path493"
         inkscape:connector-curvature="0" />
    </g>
    <g
       id="g495"
       transform="matrix(0.35277777,0,0,-0.35277777,95.48549,133.79593)">
      <path
         d="M 0,0 C 2.736,4.759 1.381,10.785 1.554,16.001 1.761,22.225 3.912,28.691 0.707,34.483 0.609,34.661 0.357,34.535 0.393,34.351 1.676,27.873 1.002,22.495 0.861,16.001 0.742,10.54 1.614,5.385 -0.228,0.096 -0.276,-0.039 -0.07,-0.121 0,0"
         style="fill:#649e44;fill-opacity:1;fill-rule:nonzero;stroke:none"
         id="path497"
         inkscape:connector-curvature="0" />
    </g>
    <g
       id="g499"
       transform="matrix(0.35277777,0,0,-0.35277777,81.389196,111.81104)">
      <path
         d="m 0,0 c -3.531,2.284 -7.554,3.732 -11.323,5.571 -4.222,2.06 -7.517,4.575 -10.983,7.683 -0.216,0.194 -0.516,-0.047 -0.393,-0.303 C -19.185,5.625 -7.165,2.457 -0.3,-0.513 0.044,-0.661 0.329,-0.213 0,0"
         style="fill:#649e44;fill-opacity:1;fill-rule:nonzero;stroke:none"
         id="path501"
         inkscape:connector-curvature="0" />
    </g>
    <g
       id="g503"
       transform="matrix(0.35277777,0,0,-0.35277777,84.892669,118.50058)">
      <path
         d="m 0,0 c -7.021,2.458 -13.943,5.025 -21.002,7.359 -3.711,1.226 -9.085,6.084 -13.154,5.285 -0.305,-0.06 -0.225,-0.448 0,-0.542 4.92,-2.07 9.322,-4.898 14.486,-6.416 C -13.194,3.784 -6.837,0.389 -0.162,-0.588 0.22,-0.643 0.378,-0.133 0,0"
         style="fill:#649e44;fill-opacity:1;fill-rule:nonzero;stroke:none"
         id="path505"
         inkscape:connector-curvature="0" />
    </g>
    <g
       id="g511"
       transform="matrix(0.35277777,0,0,-0.35277777,88.546811,124.23072)">
      <path
         d="m 0,0 c -7.53,1.41 -14.789,3.734 -22.042,6.178 -6.735,2.269 -12.3,6.821 -18.948,9.193 -0.465,0.166 -0.777,-0.574 -0.337,-0.8 C -28.311,7.896 -15.084,0.391 -0.106,-0.783 0.338,-0.817 0.442,-0.083 0,0"
         style="fill:#649e44;fill-opacity:1;fill-rule:nonzero;stroke:none"
         id="path513"
         inkscape:connector-curvature="0" />
    </g>
    <g
       id="g515"
       transform="matrix(0.35277777,0,0,-0.35277777,92.179011,129.33502)">
      <path
         d="m 0,0 c -2.466,0.356 -4.686,1.478 -7.054,2.178 -3.102,0.916 -6.348,1.279 -9.485,2.076 -6.951,1.765 -13.14,4.607 -19.786,7.109 -0.273,0.103 -0.485,-0.294 -0.281,-0.483 4.955,-4.579 13.343,-6.32 19.721,-7.882 C -13.543,2.18 -10.115,1.79 -6.817,0.809 -4.663,0.168 -2.279,-1.104 0,-0.497 0.229,-0.436 0.262,-0.038 0,0"
         style="fill:#649e44;fill-opacity:1;fill-rule:nonzero;stroke:none"
         id="path517"
         inkscape:connector-curvature="0" />
    </g>
  </g>
</svg>
