<?xml version="1.0" encoding="UTF-8" standalone="no"?>
<!-- Created with Inkscape (http://www.inkscape.org/) -->

<svg
   xmlns:dc="http://purl.org/dc/elements/1.1/"
   xmlns:cc="http://creativecommons.org/ns#"
   xmlns:rdf="http://www.w3.org/1999/02/22-rdf-syntax-ns#"
   xmlns:svg="http://www.w3.org/2000/svg"
   xmlns="http://www.w3.org/2000/svg"
   xmlns:sodipodi="http://sodipodi.sourceforge.net/DTD/sodipodi-0.dtd"
   xmlns:inkscape="http://www.inkscape.org/namespaces/inkscape"
   width="46.534012mm"
   height="44.81282mm"
   viewBox="0 0 46.534012 44.81282"
   version="1.1"
   id="svg1479"
   inkscape:version="0.92.4 5da689c313, 2019-01-14"
   sodipodi:docname="leaf5.svg">
  <defs
     id="defs1473" />
  <sodipodi:namedview
     id="base"
     pagecolor="#ffffff"
     bordercolor="#666666"
     borderopacity="1.0"
     inkscape:pageopacity="0.0"
     inkscape:pageshadow="2"
     inkscape:zoom="0.35"
     inkscape:cx="45.081151"
     inkscape:cy="-103.88577"
     inkscape:document-units="mm"
     inkscape:current-layer="layer1"
     showgrid="false"
     inkscape:window-width="1866"
     inkscape:window-height="1018"
     inkscape:window-x="54"
     inkscape:window-y="25"
     inkscape:window-maximized="1" />
  <metadata
     id="metadata1476">
    <rdf:RDF>
      <cc:Work
         rdf:about="">
        <dc:format>image/svg+xml</dc:format>
        <dc:type
           rdf:resource="http://purl.org/dc/dcmitype/StillImage" />
        <dc:title></dc:title>
      </cc:Work>
    </rdf:RDF>
  </metadata>
  <g
     inkscape:label="Layer 1"
     inkscape:groupmode="layer"
     id="layer1"
     transform="translate(-93.905612,-76.534071)">
    <g
       id="g1059"
       transform="matrix(0.35277777,0,0,-0.35277777,95.954931,115.40887)">
      <path
         d="m 0,0 c -0.37,-3.824 3.948,-7.656 7.472,-9.006 2.219,-0.85 4.311,-0.071 6.359,-0.213 4.694,-0.324 2.168,0.32 4.987,-2.602 2.715,-2.815 5.81,-6.289 10.428,-4.539 6.559,2.484 3.349,6.609 10.15,2.35 14.641,-9.168 14.882,16.509 24.852,10.311 6.939,-4.314 12.277,-9.509 20.419,-2.876 8.857,7.215 8.016,18.562 7.677,28.901 -0.092,2.811 -1.207,11.692 0.503,13.992 2.514,3.378 7.332,1.151 10.485,0.256 4.541,-1.289 8.396,-3.152 12.249,-0.164 4.457,3.456 2.559,9.034 2.536,13.989 -0.07,15.253 -14.931,21.164 -10.621,27.083 1.872,2.571 6.504,0.357 8.501,2.494 2.216,2.372 0.057,7.624 0.434,10.412 0.692,5.11 13.844,11.723 8.313,18.163 -4.63,5.391 -14.468,-4.142 -19.478,-4.73 -3.836,-0.451 -11.922,2.64 -15.151,0.448 -2.489,-1.689 -1.544,-5.687 -4.297,-7.59 -4.4,-3.043 -12.327,0.357 -17.263,0.865 C 62.861,98.13 53.99,99.579 49.092,95.861 44.249,92.185 46.698,86.112 45.778,81.027 44.43,73.578 35.472,76.78 29.04,75.466 23.164,74.265 16.185,70.116 13.356,64.697 11.653,61.436 11.233,57.921 11.47,54.293 11.567,52.802 13.395,48.049 12.793,46.795 11.435,43.969 3.454,42.893 0.73,40.116 -4.14,35.149 -1.78,32.348 0.03,26.895 2.334,19.952 -2.769,22.519 -5.175,16.79 -7.081,12.253 -4.308,10.675 -1.904,7.905 0.881,4.698 0.447,4.624 0,0"
         style="fill:#86be47;fill-opacity:1;fill-rule:nonzero;stroke:none"
         id="path1061"
         inkscape:connector-curvature="0" />
    </g>
    <g
       id="g1063"
       transform="matrix(0.35277777,0,0,-0.35277777,100.49514,114.49267)">
      <path
         d="m 0,0 c 0,0 11.357,9.118 16.407,13.309 5.049,4.191 15.941,16.315 15.941,16.315 0,0 -4.726,2.055 -12.478,1.896 -7.753,-0.159 -18.005,-0.29 -18.005,-0.29 0,0 2.518,1.471 6.77,1.671 4.253,0.201 16.743,-0.695 20.246,-0.486 3.503,0.209 5.747,-0.318 5.747,-0.318 0,0 10.622,10.377 12.895,12.351 2.273,1.973 7.593,7.911 7.593,7.911 0,0 -5.744,0.568 -10.494,0.623 -4.749,0.056 -17.507,-0.545 -21.76,-0.746 -4.252,-0.2 -9.505,-0.389 -9.505,-0.389 0,0 15.534,2.819 22.034,2.743 6.499,-0.076 20.504,0.26 20.504,0.26 0,0 6.561,5.174 8.59,7.651 2.029,2.476 7.096,8.167 7.096,8.167 l 3.296,3.962 c 0,0 -10.467,2.872 -14.955,3.925 -4.488,1.052 -12.223,2.393 -12.223,2.393 0,0 10.744,-0.626 15.485,-1.431 4.741,-0.806 13.475,-2.158 13.475,-2.158 0,0 11.875,10.612 14.407,13.333 2.532,2.72 10.616,9.876 11.619,10.115 1.003,0.238 -2.811,-5.218 -5.34,-7.689 -2.529,-2.47 -10.631,-11.126 -12.651,-12.852 -2.02,-1.727 -4.805,-4.695 -4.805,-4.695 0,0 4.865,-11.557 5.789,-18.069 0.924,-6.511 0.883,-10.011 0.883,-10.011 0,0 -1.892,9.273 -3.339,13.79 -1.447,4.518 -4.862,11.808 -4.862,11.808 0,0 -3.814,-5.456 -6.599,-8.423 -2.785,-2.968 -10.628,-10.877 -10.628,-10.877 0,0 1.652,-29.771 1.55,-38.521 -0.103,-8.749 -0.449,-16.996 -0.449,-16.996 0,0 -0.99,22.264 -1.402,29.769 -0.412,7.505 -2.222,23.777 -2.222,23.777 0,0 -7.09,-7.667 -10.378,-10.879 -3.288,-3.212 -12.393,-12.106 -12.393,-12.106 0,0 -1.207,-17.737 -2.018,-22.978 -0.812,-5.241 -1.873,-10.479 -1.873,-10.479 0,0 1.713,18.231 1.289,24.737 l -0.424,6.505 c 0,0 -13.668,-14.341 -18.209,-17.788 C 10.064,5.383 0,0 0,0"
         style="fill:#649e44;fill-opacity:1;fill-rule:nonzero;stroke:none"
         id="path1065"
         inkscape:connector-curvature="0" />
    </g>
  </g>
</svg>
