<?xml version="1.0" encoding="UTF-8" standalone="no"?>
<!-- Created with Inkscape (http://www.inkscape.org/) -->

<svg
   xmlns:dc="http://purl.org/dc/elements/1.1/"
   xmlns:cc="http://creativecommons.org/ns#"
   xmlns:rdf="http://www.w3.org/1999/02/22-rdf-syntax-ns#"
   xmlns:svg="http://www.w3.org/2000/svg"
   xmlns="http://www.w3.org/2000/svg"
   xmlns:sodipodi="http://sodipodi.sourceforge.net/DTD/sodipodi-0.dtd"
   xmlns:inkscape="http://www.inkscape.org/namespaces/inkscape"
   width="33.954662mm"
   height="35.676811mm"
   viewBox="0 0 33.954662 35.676811"
   version="1.1"
   id="svg1315"
   inkscape:version="0.92.4 5da689c313, 2019-01-14"
   sodipodi:docname="leaf3.svg">
  <defs
     id="defs1309">
    <clipPath
       clipPathUnits="userSpaceOnUse"
       id="clipPath1101">
      <path
         d="M 71.6667,255.004 H 147.368 V 171.952 H 71.6667 Z"
         id="path1099"
         inkscape:connector-curvature="0" />
    </clipPath>
  </defs>
  <sodipodi:namedview
     id="base"
     pagecolor="#ffffff"
     bordercolor="#666666"
     borderopacity="1.0"
     inkscape:pageopacity="0.0"
     inkscape:pageshadow="2"
     inkscape:zoom="0.35"
     inkscape:cx="121.30915"
     inkscape:cy="61.706459"
     inkscape:document-units="mm"
     inkscape:current-layer="layer1"
     showgrid="false"
     inkscape:window-width="1866"
     inkscape:window-height="1018"
     inkscape:window-x="54"
     inkscape:window-y="25"
     inkscape:window-maximized="1" />
  <metadata
     id="metadata1312">
    <rdf:RDF>
      <cc:Work
         rdf:about="">
        <dc:format>image/svg+xml</dc:format>
        <dc:type
           rdf:resource="http://purl.org/dc/dcmitype/StillImage" />
        <dc:title></dc:title>
      </cc:Work>
    </rdf:RDF>
  </metadata>
  <g
     inkscape:label="Layer 1"
     inkscape:groupmode="layer"
     id="layer1"
     transform="translate(-73.736955,-129.48302)">
    <g
       id="g1091"
       transform="matrix(0.35277777,0,0,-0.35277777,77.179709,161.42317)">
      <path
         d="m 0,0 c 1.484,1.218 3.934,2.542 4.848,4.306 1.43,2.761 -8.42,16.392 1.73,41.508 2.49,6.162 7.34,13.866 10.526,19.649 3.732,6.777 11.649,11.966 17.961,16.279 7.613,5.202 17.498,7.492 26.545,8.106 5.945,0.403 13.769,-1.435 19.402,0.691 3.205,-4.547 3.036,-11.239 3.46,-16.591 0.439,-5.545 0.536,-11.101 1.45,-16.601 C 88.89,39.481 79.908,25.065 66.618,13.575 55.145,3.656 38.066,-5.233 22.348,-3.149 18.182,-2.596 14.276,-0.101 10.239,0.318 7.427,0.61 5.448,-1.085 3.202,-2.636 1.396,-3.883 -8.331,-13.016 -9.681,-9.976 -10.632,-7.681 -2.622,-2.151 0,0"
         style="fill:#649e44;fill-opacity:1;fill-rule:nonzero;stroke:none"
         id="path1093"
         inkscape:connector-curvature="0" />
    </g>
    <g
       transform="matrix(0.35277777,0,0,-0.35277777,54.400036,220.79641)"
       id="g1095">
      <g
         id="g1097" />
      <g
         id="g1141">
        <g
           clip-path="url(#clipPath1101)"
           id="g1139"
           style="opacity:0.30000299">
          <g
             transform="translate(71.6667,172)"
             id="g1105">
            <path
               d="m 0,0 c 8.102,8.411 15.096,18.045 23.674,26.017 4.453,4.138 7.477,10.195 10.502,15.32 4.353,7.376 12.925,13.035 18.574,19.632 5.69,6.643 10.455,13.652 16.265,20.254 C 68.694,74.986 63.089,67.789 59.242,63.132 55.274,58.33 50.185,54.143 46.01,49.343 40.347,42.834 35.658,35.801 30.154,29.191 27.501,26.005 25.437,22.214 22.584,19.235 19.692,16.216 17.472,12.51 14.654,9.511 12.501,7.219 9.216,5.172 6.757,2.909 5.065,1.352 2.89,-0.357 0,0"
               style="fill:#218649;fill-opacity:1;fill-rule:nonzero;stroke:none"
               id="path1103"
               inkscape:connector-curvature="0" />
          </g>
          <g
             transform="translate(80.6849,179)"
             id="g1109">
            <path
               d="M 0,0 C 0.15,2.979 -0.458,5.723 -0.721,8.668 -0.952,11.25 -0.77,13.841 -1.1,16.416 -1.775,21.685 -2.621,27.893 -5.402,32.499 -5.6,32.827 -6.073,32.605 -6.001,32.246 -3.864,21.559 -1.658,10.884 -0.703,0 -0.664,-0.447 -0.023,-0.458 0,0"
               style="fill:#218649;fill-opacity:1;fill-rule:nonzero;stroke:none"
               id="path1107"
               inkscape:connector-curvature="0" />
          </g>
          <g
             transform="translate(96.2656,196)"
             id="g1113">
            <path
               d="M 0,0 C 0.259,6.219 -2.448,11.931 -3.357,17.999 -4.245,23.922 -3.36,30.627 -6.07,36.114 -6.166,36.309 -6.517,36.223 -6.492,36 -5.829,29.969 -5.396,23.769 -4.476,17.772 -3.548,11.726 -1.234,6.116 -0.531,0 -0.493,-0.333 -0.015,-0.35 0,0"
               style="fill:#218649;fill-opacity:1;fill-rule:nonzero;stroke:none"
               id="path1111"
               inkscape:connector-curvature="0" />
          </g>
          <g
             transform="translate(113.6422,219.2482)"
             id="g1117">
            <path
               d="m 0,0 c 1.476,4.002 -0.985,8.027 -2.145,11.806 -1.695,5.524 -1.712,11.471 -4.234,16.766 -0.163,0.342 -0.599,0.075 -0.557,-0.235 0.674,-4.94 2.092,-10.116 3.233,-14.984 C -2.653,8.872 0.073,4.945 -0.618,0.17 -0.676,-0.233 -0.145,-0.394 0,0"
               style="fill:#218649;fill-opacity:1;fill-rule:nonzero;stroke:none"
               id="path1115"
               inkscape:connector-curvature="0" />
          </g>
          <g
             transform="translate(129.8229,235.3333)"
             id="g1121">
            <path
               d="m 0,0 c 0.387,3.137 -0.37,6.122 -1.192,9.136 -0.929,3.405 -1.381,6.907 -2.299,10.289 -0.086,0.314 -0.593,0.341 -0.663,0 -0.608,-2.962 0.437,-5.977 1.293,-8.809 1.069,-3.54 2.049,-6.98 2.554,-10.658 C -0.281,-0.232 -0.019,-0.157 0,0"
               style="fill:#218649;fill-opacity:1;fill-rule:nonzero;stroke:none"
               id="path1119"
               inkscape:connector-curvature="0" />
          </g>
          <g
             transform="translate(130.9024,236.9793)"
             id="g1125">
            <path
               d="m 0,0 c 2.583,-0.96 5.267,-0.761 7.963,-0.468 2.695,0.292 5.631,0.387 8.234,1.127 0.346,0.098 0.369,0.637 0,0.723 C 13.958,1.905 11.597,1.314 9.353,0.991 6.224,0.541 3.239,0.309 0.098,0.721 -0.34,0.779 -0.358,0.133 0,0"
               style="fill:#218649;fill-opacity:1;fill-rule:nonzero;stroke:none"
               id="path1123"
               inkscape:connector-curvature="0" />
          </g>
          <g
             transform="translate(115,220.0833)"
             id="g1129">
            <path
               d="m 0,0 c 5.584,0.66 10.801,0.775 16.402,0.172 4.805,-0.517 10.243,-1.962 15.016,-0.898 0.313,0.07 0.299,0.54 0,0.618 C 26.413,1.198 20.675,1.222 15.509,1.667 10.354,2.111 4.83,2.419 -0.066,0.491 -0.303,0.398 -0.305,-0.036 0,0"
               style="fill:#218649;fill-opacity:1;fill-rule:nonzero;stroke:none"
               id="path1127"
               inkscape:connector-curvature="0" />
          </g>
          <g
             transform="translate(98,197.6797)"
             id="g1133">
            <path
               d="m 0,0 c 4.251,-0.393 8.448,0.17 12.666,-0.744 2.683,-0.582 5.221,-1.577 7.969,-1.861 6.586,-0.681 12.985,0.348 19.592,-0.792 0.406,-0.07 0.755,0.535 0.307,0.728 -5.489,2.364 -11.721,1.042 -17.508,1.275 C 18.933,-1.229 15.263,0.299 11.258,0.891 7.538,1.44 3.706,1.12 0,0.641 -0.404,0.588 -0.419,0.039 0,0"
               style="fill:#218649;fill-opacity:1;fill-rule:nonzero;stroke:none"
               id="path1131"
               inkscape:connector-curvature="0" />
          </g>
          <g
             transform="translate(82.3333,178.8958)"
             id="g1137">
            <path
               d="m 0,0 c 6.097,-0.453 11.849,-0.493 17.882,-1.705 4.244,-0.853 8.929,-0.82 13.207,-0.181 0.325,0.048 0.317,0.591 0,0.647 C 28.991,-0.862 27.009,-0.978 24.88,-1 21.33,-1.036 18.188,-0.347 14.711,0.301 9.89,1.2 4.879,1.048 0,0.875 -0.568,0.855 -0.558,0.041 0,0"
               style="fill:#218649;fill-opacity:1;fill-rule:nonzero;stroke:none"
               id="path1135"
               inkscape:connector-curvature="0" />
          </g>
        </g>
      </g>
    </g>
  </g>
</svg>
