<?xml version="1.0" encoding="UTF-8" standalone="no"?>
<!-- Created with Inkscape (http://www.inkscape.org/) -->

<svg
   xmlns:dc="http://purl.org/dc/elements/1.1/"
   xmlns:cc="http://creativecommons.org/ns#"
   xmlns:rdf="http://www.w3.org/1999/02/22-rdf-syntax-ns#"
   xmlns:svg="http://www.w3.org/2000/svg"
   xmlns="http://www.w3.org/2000/svg"
   xmlns:sodipodi="http://sodipodi.sourceforge.net/DTD/sodipodi-0.dtd"
   xmlns:inkscape="http://www.inkscape.org/namespaces/inkscape"
   width="63.400028mm"
   height="70.279678mm"
   viewBox="0 0 63.400028 70.279678"
   version="1.1"
   id="svg1159"
   inkscape:version="0.92.4 5da689c313, 2019-01-14"
   sodipodi:docname="leaf1.svg">
  <defs
     id="defs1153">
    <clipPath
       clipPathUnits="userSpaceOnUse"
       id="clipPath461">
      <path
         d="m 164.785,699.292 h 95.508 v -91.458 h -95.508 z"
         id="path459"
         inkscape:connector-curvature="0" />
    </clipPath>
  </defs>
  <sodipodi:namedview
     id="base"
     pagecolor="#ffffff"
     bordercolor="#666666"
     borderopacity="1.0"
     inkscape:pageopacity="0.0"
     inkscape:pageshadow="2"
     inkscape:zoom="0.35"
     inkscape:cx="88.382508"
     inkscape:cy="87.097722"
     inkscape:document-units="mm"
     inkscape:current-layer="layer1"
     showgrid="false"
     inkscape:window-width="1866"
     inkscape:window-height="1018"
     inkscape:window-x="54"
     inkscape:window-y="25"
     inkscape:window-maximized="1" />
  <metadata
     id="metadata1156">
    <rdf:RDF>
      <cc:Work
         rdf:about="">
        <dc:format>image/svg+xml</dc:format>
        <dc:type
           rdf:resource="http://purl.org/dc/dcmitype/StillImage" />
        <dc:title></dc:title>
      </cc:Work>
    </rdf:RDF>
  </metadata>
  <g
     inkscape:label="Layer 1"
     inkscape:groupmode="layer"
     id="layer1"
     transform="translate(-82.448795,-101.59826)">
    <g
       id="g451"
       transform="matrix(0.35277777,0,0,-0.35277777,86.629564,171.09195)">
      <path
         d="m 0,0 3.17,-2.228 c 0,0 10.455,11.213 22.514,26.383 12.06,15.17 31.466,49.205 31.466,49.205 0,0 2.59,-10.878 5.158,-17.037 2.568,-6.159 8.841,-19.753 8.841,-19.753 l 1.293,-7.296 c 0,0 3.085,16.646 10.68,18.046 7.595,1.401 15.412,-13.66 15.412,-13.66 0,0 0.179,12.555 6.658,10.513 6.478,-2.042 8.454,-4.702 8.454,-4.702 0,0 1.77,5.367 13.157,3.752 11.387,-1.615 14.397,-1.537 14.397,-1.537 0,0 -17.506,9.188 -16.868,19.546 0.637,10.358 27.244,14.256 27.244,14.256 0,0 -9.406,2.669 -8.069,9.23 1.337,6.561 7.954,6.932 7.954,6.932 0,0 -7.235,4.131 2.047,10.193 9.282,6.063 15.251,8.224 14.248,8.198 -1.004,-0.025 -11.366,-3.103 -16.162,-0.114 -4.796,2.989 -5.064,5.593 -5.064,5.593 0,0 -3.828,-3.412 -8.053,0.796 -4.225,4.209 -2.836,8.763 -3.731,8.439 -0.895,-0.324 -4.101,-4.523 -10.471,-2.78 -6.37,1.744 -7.616,3.319 -4.246,8.927 3.37,5.609 13.639,20.131 13.639,20.131 0,0 -10.579,-2.481 -12.823,2.783 -2.244,5.263 0.746,10.059 0.746,10.059 0,0 -4.693,-1.024 -4.709,7.409 -0.016,8.434 1.944,14.207 1.944,14.207 0,0 -7.229,-11.732 -18.374,-11.718 -11.145,0.015 -13.168,8.397 -13.168,8.397 0,0 -3.92,-11.547 -11.278,-18.263 -7.357,-6.715 -10.83,-8.311 -12.452,-3.834 -1.621,4.476 -1.997,7.378 -1.997,7.378 0,0 -1.877,-5.068 -4.204,-0.509 -2.326,4.558 -2.507,11.582 -2.507,11.582 0,0 -5.458,-6.365 -10.712,-1.179 -5.254,5.186 -9.141,19.645 -9.141,19.645 0,0 -0.235,-14.264 -5.02,-23.423 -4.784,-9.16 -8.561,-14.578 -12.085,-14.167 -3.525,0.411 -8.944,4.188 -8.944,4.188 0,0 8.847,-16.038 8.915,-26.478 0.068,-10.441 -1.646,-14.099 -10.352,-15.227 -8.706,-1.128 -19.358,3.117 -19.358,3.117 0,0 10.621,-6.956 10.128,-11.186 -0.494,-4.23 -2.691,-4.688 -2.691,-4.688 0,0 5.099,0.834 6.314,-3.452 1.215,-4.286 -3.426,-7.317 -3.426,-7.317 0,0 8.135,-0.092 6.097,-2.855 -2.037,-2.764 -3.72,-3.711 -3.72,-3.711 0,0 7.137,3.598 13.935,-3.055 6.798,-6.653 8.069,-9.23 4.133,-12.344 -3.936,-3.113 -8.413,-4.734 -8.413,-4.734 0,0 22.455,1.381 26.788,-3.127 4.333,-4.507 4.354,-9.225 4.354,-9.225 0,0 8.006,4.925 9.853,7.282 1.847,2.356 3.751,6.422 3.751,6.422 0,0 -14.349,-23.764 -23.991,-35.357 C 21.619,26.059 0,0 0,0"
         style="fill:#218649;fill-opacity:1;fill-rule:nonzero;stroke:none"
         id="path453"
         inkscape:connector-curvature="0" />
    </g>
    <g
       transform="matrix(0.35277777,0,0,-0.35277777,37.154457,366.23685)"
       id="g469">
      <g
         clip-path="url(#clipPath461)"
         id="g467">
        <g
           transform="translate(196.5,628.1675)"
           id="g465">
          <path
             d="m 0,0 c -2.263,2.481 -5.837,8.64 -8.796,10.321 -2.863,1.625 -5.62,3.608 -8.297,5.503 -4.884,3.46 -9.96,6.494 -14.622,10.359 6.2,0.401 13.374,-7.219 18.548,-10.183 C -9.72,14.026 -2.833,8.333 0.667,4.833 -0.466,16.317 -8.647,31.462 -11.641,42.541 -14.029,51.376 -16.667,62.5 -17.455,71.124 -12.5,58.667 -8.833,43.833 -4.667,32.167 -3.369,28.534 -2.251,25.243 -1.333,21.5 -0.734,19.056 3.5,7.833 3.5,7.833 c 0,0 24.551,42.614 29.333,49.334 1.988,2.793 5.167,8.333 7.606,10.622 0.08,-0.124 0.349,-0.464 0.45,-0.559 C 38.04,60.663 33.721,54.87 30.008,48.773 25.857,41.959 21.731,34.955 17.833,28 14.058,21.263 10.798,14.308 6.572,7.862 9.954,7.76 14.29,8.727 17.5,9.833 c 6.145,2.118 12.502,4.031 18.833,5.5 5.285,1.227 10.183,2.653 15.5,3.667 3.505,0.669 8.479,2.963 11.96,1.887 -9.96,-3.22 -19.46,-6.554 -33.293,-9.72 -3.803,-0.871 -22.84,-8.171 -25.667,-8.5 9.925,-5.186 35.265,-12.69 40,-23 -5.833,3 -19.166,10.166 -28.333,14.5 C 11.125,-3.292 6.901,-1.901 0,0"
             style="fill:#5ea270;fill-opacity:1;fill-rule:nonzero;stroke:none"
             id="path463"
             inkscape:connector-curvature="0" />
        </g>
      </g>
    </g>
  </g>
</svg>
